<svg xmlns="http://www.w3.org/2000/svg" xmlns:xlink="http://www.w3.org/1999/xlink" width="60.989" height="60.299" viewBox="0 0 60.989 60.299">
  <defs>
    <linearGradient id="linear-gradient" x1="-0.05" y1="0.392" x2="1" y2="0.381" gradientUnits="objectBoundingBox">
      <stop offset="0" stop-color="#55e6f1"/>
      <stop offset="0.124" stop-color="#4de1f1"/>
      <stop offset="0.623" stop-color="#267ae8"/>
      <stop offset="1" stop-color="#0c36e2"/>
      <stop offset="1" stop-color="#0a7ffe"/>
    </linearGradient>
    <clipPath id="clip-path">
      <path id="Path_17307" data-name="Path 17307" d="M24.307,25.312a3.059,3.059,0,0,0,.235,6.107c.085,0,.17-.006.253-.013v.013H35.188v-.013a3.567,3.567,0,1,0-1.184-7,4.933,4.933,0,0,0-9.7.9" transform="translate(-21.5 -20.71)" fill="url(#linear-gradient)"/>
    </clipPath>
    <clipPath id="clip-path-2">
      <path id="Path_17308" data-name="Path 17308" d="M43.373,1.269A23.552,23.552,0,0,1,57.189,28.3a26.465,26.465,0,0,1-6.832,12.809,24.154,24.154,0,0,1-22.529,6.67A22.838,22.838,0,0,1,14.456,39.19,22.891,22.891,0,0,1,9.8,27.818a20.623,20.623,0,0,1,1.853-11.368A18.851,18.851,0,0,1,17.94,8.8l.35-.245a.2.2,0,0,0-.153-.013,25.826,25.826,0,0,0-7.884,3.626,31.161,31.161,0,0,0-2.764,2.105A24,24,0,0,0,5.145,16.68,21.077,21.077,0,0,0,.664,25.968,27.463,27.463,0,0,0,.607,37.716c.134.641.312,1.272.47,1.909.042-.693.01-1.372.044-2.048a19.287,19.287,0,0,1,2.056-8.1c.286-.544.661-1.041,1-1.56l.065.063c-.08,1.032-.192,2.061-.233,3.095A27.359,27.359,0,0,0,4.784,38.4a25.864,25.864,0,0,0,2.474,6.832,35.649,35.649,0,0,0,7.365,9.121c.316.285.643.557.965.836a15.1,15.1,0,0,1-2.773-5.326,18.5,18.5,0,0,1-.833-5.935,1.288,1.288,0,0,1,.159.326,22.375,22.375,0,0,0,3.195,5.8,25.816,25.816,0,0,0,8.106,6.8,25.318,25.318,0,0,0,9.681,3.047,23.889,23.889,0,0,0,6.428-.149,17.177,17.177,0,0,1-6.512-1.7c-1.881-.926-4.943-3.248-5.39-4.089l.255.116a19.8,19.8,0,0,0,7.613,1.848,23.843,23.843,0,0,0,14.116-4.1,14.551,14.551,0,0,0,4.379-4.283c.19-.3.361-.607.541-.91-2.191,2.014-5.854,3.838-7.638,3.734.111-.068.2-.127.3-.184a28.591,28.591,0,0,0,5.816-4.537A27.228,27.228,0,0,0,59.886,34a28.062,28.062,0,0,0,.205-14.84A25.66,25.66,0,0,0,52.924,6.495a21.333,21.333,0,0,0-9.372-5.32c-.152-.04-.306-.073-.459-.109a.66.66,0,0,0,.281.2" transform="translate(0 -1.067)" fill="url(#linear-gradient)"/>
    </clipPath>
    <clipPath id="clip-path-3">
      <path id="Path_17309" data-name="Path 17309" d="M41.927,13.372c-.82-.356-1-1.174-1.373-1.92a1.44,1.44,0,0,1,1.18-.161,1.79,1.79,0,0,1,.722.433,3.61,3.61,0,0,1,.5.706,1.709,1.709,0,0,0,1.346.978,3.734,3.734,0,0,1-1.194.214,2.911,2.911,0,0,1-1.177-.249M27.13,0A10.414,10.414,0,0,0,24.9.244a.776.776,0,0,0,.224.036,10,10,0,0,1,4.243,1,9.029,9.029,0,0,1,3.921,3.408c.12.2.214.409.321.614a2.078,2.078,0,0,1-.586-.248,19.022,19.022,0,0,0-9.482-2.085,21.261,21.261,0,0,0-7.276,1.61A25.213,25.213,0,0,0,7.874,9.763c-.478.452-.925.937-1.387,1.406.072.035.1.025.128.007a24.849,24.849,0,0,1,7.142-3.727,14.92,14.92,0,0,1,6.256-.806c.421.044.837.129,1.35.21-.174.112-.253.167-.336.215a23.3,23.3,0,0,0-3.521,2.451A19.2,19.2,0,0,0,12.058,16.6a18.224,18.224,0,0,0-.842,12.462,1.537,1.537,0,0,0,.06.154,16.118,16.118,0,0,1,.792-5.514,13.029,13.029,0,0,1,2.742-4.761c.01.069-.036.107-.061.156A17.1,17.1,0,0,0,12.8,25.52a18.206,18.206,0,0,0,1.551,9.234,18.8,18.8,0,0,0,7.3,8.421A19.8,19.8,0,0,0,33.319,46.1a24.851,24.851,0,0,0,10.342-2.746c.679-.345,1.33-.746,1.994-1.12l-.027-.067c-.153.064-.305.129-.459.191a19.968,19.968,0,0,1-5.554,1.3,21.139,21.139,0,0,1-12.9-2.588,15.04,15.04,0,0,1-4.939-4.353,18.274,18.274,0,0,1-3.131-7.672,10.8,10.8,0,0,1,1.033-7.017,11.636,11.636,0,0,1,8-6.205c.436-.1.884-.146,1.327-.216-.554.287-1.128.492-1.672.759a12.36,12.36,0,0,0-1.556.9,13.327,13.327,0,0,0-1.424,1.149,4.768,4.768,0,0,0-1.082,1.418A12.927,12.927,0,0,1,28.514,17.7a7.946,7.946,0,0,1,5.46,1.217A9.774,9.774,0,0,0,26.9,21.763a.35.35,0,0,0,.189-.053,8.213,8.213,0,0,1,5.011-.98q2.785.358,5.565.762a4.619,4.619,0,0,1,3.459,2.294,6.249,6.249,0,0,0,.727,1.076,5.325,5.325,0,0,0,1.119.916c.432.263.522.313.384.817a1.713,1.713,0,0,1-.351.7,8.479,8.479,0,0,1-.9.747,2.749,2.749,0,0,0,2.679-1.2c.095-.173.2-.151.356-.114a1.873,1.873,0,0,0,1.5-.249,2.555,2.555,0,0,0,.842-3.083,2.461,2.461,0,0,1-1.792,1.108c.371-.787.371-.787.255-1.072a1.336,1.336,0,0,1-2.416-.528c-.017-.053-.031-.107-.05-.159a4.486,4.486,0,0,0-2.136-2.543,3.843,3.843,0,0,1-.763-.53,5.533,5.533,0,0,1-1.75-3.545c-.02-.145-.02-.292-.033-.507a2.757,2.757,0,0,0,1.948.538c.377-.007.753,0,1.13-.011a4.658,4.658,0,0,1,3.579,1.5,3.387,3.387,0,0,0,2.7,1.12,3.665,3.665,0,0,1,1.268.2c.832.284.94.65.516,1.447-.007.012.008.035.032.13l1.08-.689a1.906,1.906,0,0,1-.329,1.731,2.2,2.2,0,0,0,1.559-1.148.736.736,0,0,1,.358-.292,1.151,1.151,0,0,0,.789-.873,2.523,2.523,0,0,0-1.356-2.756,5.407,5.407,0,0,0-2.053-.329,2.459,2.459,0,0,1-1.026-.212c-.691-.371-1.337-.828-2.006-1.242a4.939,4.939,0,0,1-1.856-2.218A6.023,6.023,0,0,0,42.9,9.745c-.313-.191-.629-.378-.925-.594a1.551,1.551,0,0,1-.451-.46,17.107,17.107,0,0,0-3.344-4.3A16.454,16.454,0,0,0,28.762.1,13.327,13.327,0,0,0,27.231,0Z" transform="translate(-6.487)" fill="url(#linear-gradient)"/>
    </clipPath>
    <clipPath id="clip-path-4">
      <path id="Path_17310" data-name="Path 17310" d="M36.993,15.993c.435.165.878.311,1.318.464a2.283,2.283,0,0,1,1.437,1.432c.1.261.209.517.306.778a2.221,2.221,0,0,0,1.533,1.458,13.314,13.314,0,0,0,1.362.3,3.831,3.831,0,0,1,2.114,1.043,2.916,2.916,0,0,0,.758.531,2.087,2.087,0,0,0,2.625-.686c-.041.019-.07.03-.1.046A1.573,1.573,0,0,1,46,20.679,1.732,1.732,0,0,0,44.679,19.6a2.892,2.892,0,0,1,2.755-.144,2.329,2.329,0,0,0-1.967-.743,9.657,9.657,0,0,0-1.4.268,2.312,2.312,0,0,1-2.955-1.376c-.044-.09-.1-.176-.136-.268a2.262,2.262,0,0,0-2.144-1.473c-.144-.007-.287-.019-.432-.028a4.171,4.171,0,0,1-1.818-.484c-.226-.127-.434-.289-.681-.455a1.676,1.676,0,0,0,1.091,1.094" transform="translate(-35.902 -14.899)" fill="url(#linear-gradient)"/>
    </clipPath>
  </defs>
  <g id="Group_18649" data-name="Group 18649" transform="translate(-993 3777)">
    <g id="Group_18626" data-name="Group 18626" transform="translate(1019.458 -3751.514)">
      <g id="Group_18625" data-name="Group 18625" transform="translate(0 0)" clip-path="url(#clip-path)">
        <rect id="Rectangle_6798" data-name="Rectangle 6798" width="16.983" height="10.709" transform="translate(0 0)" fill="url(#linear-gradient)"/>
      </g>
    </g>
    <g id="Group_18630" data-name="Group 18630" transform="translate(993 -3775.687)">
      <g id="Group_18629" data-name="Group 18629" transform="translate(0 0)" clip-path="url(#clip-path-2)">
        <rect id="Rectangle_6800" data-name="Rectangle 6800" width="61.54" height="59.073" transform="translate(-0.213 0)" fill="url(#linear-gradient)"/>
      </g>
    </g>
    <g id="Group_18632" data-name="Group 18632" transform="translate(1000.983 -3777)">
      <g id="Group_18631" data-name="Group 18631" transform="translate(0)" clip-path="url(#clip-path-3)">
        <rect id="Rectangle_6801" data-name="Rectangle 6801" width="47.181" height="46.267" transform="translate(0 0)" fill="url(#linear-gradient)"/>
      </g>
    </g>
    <g id="Group_18634" data-name="Group 18634" transform="translate(1037.181 -3758.665)">
      <g id="Group_18633" data-name="Group 18633" transform="translate(0 0)" clip-path="url(#clip-path-4)">
        <rect id="Rectangle_6802" data-name="Rectangle 6802" width="12.544" height="7.556" transform="translate(0 0)" fill="url(#linear-gradient)"/>
      </g>
    </g>
  </g>
</svg>
