<svg xmlns="http://www.w3.org/2000/svg" xmlns:xlink="http://www.w3.org/1999/xlink" width="192.753" height="49.049" viewBox="0 0 192.753 49.049">
  <defs>
    <linearGradient id="linear-gradient" x1="-0.05" y1="0.392" x2="1" y2="0.381" gradientUnits="objectBoundingBox">
      <stop offset="0" stop-color="#55e6f1"/>
      <stop offset="0.124" stop-color="#4de1f1"/>
      <stop offset="0.623" stop-color="#267ae8"/>
      <stop offset="1" stop-color="#0c36e2"/>
      <stop offset="1" stop-color="#0a7ffe"/>
    </linearGradient>
    <clipPath id="clip-path">
      <path id="Path_17307" data-name="Path 17307" d="M23.784,24.453a2.488,2.488,0,0,0,.191,4.968c.069,0,.138,0,.206-.01v.01h8.453v-.01a2.9,2.9,0,1,0-.963-5.693,4.012,4.012,0,0,0-7.888.735" transform="translate(-21.5 -20.71)" fill="url(#linear-gradient)"/>
    </clipPath>
    <clipPath id="clip-path-2">
      <path id="Path_17308" data-name="Path 17308" d="M35.281,1.231a19.157,19.157,0,0,1,11.237,21.99,21.527,21.527,0,0,1-5.557,10.419,19.647,19.647,0,0,1-18.325,5.425,18.577,18.577,0,0,1-10.877-6.99,18.62,18.62,0,0,1-3.783-9.25,16.775,16.775,0,0,1,1.507-9.247,15.334,15.334,0,0,1,5.11-6.22l.284-.2a.16.16,0,0,0-.125-.011A21.008,21.008,0,0,0,8.34,10.1,25.347,25.347,0,0,0,6.091,11.81a19.52,19.52,0,0,0-1.906,1.957A17.144,17.144,0,0,0,.54,21.322a22.339,22.339,0,0,0-.046,9.556C.6,31.4.748,31.913.877,32.43c.034-.564.008-1.116.036-1.666a15.689,15.689,0,0,1,1.673-6.59c.232-.443.538-.847.81-1.269l.053.051c-.065.839-.156,1.677-.19,2.517a22.254,22.254,0,0,0,.633,5.961A21.038,21.038,0,0,0,5.9,36.992a29,29,0,0,0,5.99,7.419c.257.232.523.453.785.68a12.286,12.286,0,0,1-2.255-4.332,15.048,15.048,0,0,1-.678-4.827,1.048,1.048,0,0,1,.129.265,18.2,18.2,0,0,0,2.6,4.719,21,21,0,0,0,6.593,5.533,20.594,20.594,0,0,0,7.875,2.478,19.432,19.432,0,0,0,5.229-.122,13.972,13.972,0,0,1-5.3-1.38A15.374,15.374,0,0,1,22.489,44.1l.207.094a16.1,16.1,0,0,0,6.192,1.5A19.394,19.394,0,0,0,40.37,42.363a11.836,11.836,0,0,0,3.562-3.484c.155-.242.294-.493.44-.74-1.782,1.638-4.762,3.122-6.213,3.037.09-.056.165-.1.241-.15a23.256,23.256,0,0,0,4.731-3.691,22.148,22.148,0,0,0,5.581-9.479,22.826,22.826,0,0,0,.167-12.071,20.872,20.872,0,0,0-5.83-10.3,17.353,17.353,0,0,0-7.624-4.327c-.124-.033-.249-.06-.373-.088a.537.537,0,0,0,.229.165" transform="translate(0 -1.067)" fill="url(#linear-gradient)"/>
    </clipPath>
    <clipPath id="clip-path-3">
      <path id="Path_17309" data-name="Path 17309" d="M35.315,10.877c-.667-.29-.81-.955-1.116-1.562a1.172,1.172,0,0,1,.96-.131,1.456,1.456,0,0,1,.588.352,2.936,2.936,0,0,1,.4.574,1.39,1.39,0,0,0,1.095.8,3.038,3.038,0,0,1-.972.174,2.368,2.368,0,0,1-.958-.2M23.279,0a8.471,8.471,0,0,0-1.817.2.631.631,0,0,0,.182.029,8.133,8.133,0,0,1,3.451.811,7.344,7.344,0,0,1,3.19,2.772c.1.16.174.333.261.5a1.69,1.69,0,0,1-.476-.2,15.473,15.473,0,0,0-7.713-1.7,17.294,17.294,0,0,0-5.919,1.309A20.508,20.508,0,0,0,7.616,7.941c-.389.368-.753.762-1.128,1.144.059.028.084.02.1.006A20.213,20.213,0,0,1,12.4,6.059,12.136,12.136,0,0,1,17.489,5.4c.342.036.681.105,1.1.171-.142.091-.205.136-.273.175A18.955,18.955,0,0,0,15.45,7.743,15.619,15.619,0,0,0,11.019,13.5a14.824,14.824,0,0,0-.685,10.137,1.251,1.251,0,0,0,.049.125,13.111,13.111,0,0,1,.644-4.485,10.6,10.6,0,0,1,2.23-3.873c.009.056-.029.087-.05.127a13.908,13.908,0,0,0-1.586,5.224,14.809,14.809,0,0,0,1.262,7.511,15.293,15.293,0,0,0,5.94,6.85A16.1,16.1,0,0,0,28.313,37.5a20.214,20.214,0,0,0,8.413-2.234c.553-.28,1.082-.606,1.622-.911l-.022-.055c-.124.052-.248.105-.373.155a16.242,16.242,0,0,1-4.518,1.059A17.2,17.2,0,0,1,22.944,33.4a12.234,12.234,0,0,1-4.017-3.541,14.864,14.864,0,0,1-2.547-6.24,8.785,8.785,0,0,1,.841-5.708,9.465,9.465,0,0,1,6.507-5.047c.355-.081.719-.119,1.079-.176-.451.233-.918.4-1.36.617a10.054,10.054,0,0,0-1.266.728,10.84,10.84,0,0,0-1.158.934,3.878,3.878,0,0,0-.88,1.154A10.515,10.515,0,0,1,24.4,14.4a6.464,6.464,0,0,1,4.441.99A7.95,7.95,0,0,0,23.09,17.7a.285.285,0,0,0,.154-.043,6.681,6.681,0,0,1,4.076-.8q2.266.291,4.527.62a3.757,3.757,0,0,1,2.814,1.866,5.083,5.083,0,0,0,.592.875,4.331,4.331,0,0,0,.91.745c.352.214.425.255.312.664a1.393,1.393,0,0,1-.286.573,6.9,6.9,0,0,1-.731.608,2.236,2.236,0,0,0,2.179-.975c.077-.141.166-.123.29-.093a1.523,1.523,0,0,0,1.218-.2,2.078,2.078,0,0,0,.685-2.508,2,2,0,0,1-1.458.9c.3-.64.3-.64.207-.872a1.087,1.087,0,0,1-1.965-.43c-.014-.043-.025-.087-.041-.13a3.649,3.649,0,0,0-1.737-2.069A3.126,3.126,0,0,1,34.215,16a4.5,4.5,0,0,1-1.424-2.884c-.016-.118-.016-.238-.027-.412a2.243,2.243,0,0,0,1.584.438c.306-.006.613,0,.919-.009a3.789,3.789,0,0,1,2.911,1.216,2.755,2.755,0,0,0,2.2.911,2.981,2.981,0,0,1,1.031.159c.677.231.765.528.42,1.177-.005.01.006.029.026.106l.878-.56a1.551,1.551,0,0,1-.268,1.408,1.792,1.792,0,0,0,1.268-.934.6.6,0,0,1,.291-.238.936.936,0,0,0,.641-.71,2.052,2.052,0,0,0-1.1-2.242,4.4,4.4,0,0,0-1.67-.268,2,2,0,0,1-.835-.172c-.562-.3-1.088-.673-1.632-1.01a4.018,4.018,0,0,1-1.51-1.8,4.9,4.9,0,0,0-1.809-2.25c-.254-.156-.512-.308-.753-.483a1.262,1.262,0,0,1-.367-.374,13.915,13.915,0,0,0-2.72-3.5A13.384,13.384,0,0,0,24.606.08,10.841,10.841,0,0,0,23.36,0Z" transform="translate(-6.487)" fill="url(#linear-gradient)"/>
    </clipPath>
    <clipPath id="clip-path-4">
      <path id="Path_17310" data-name="Path 17310" d="M36.789,15.789c.354.134.714.253,1.072.378a1.857,1.857,0,0,1,1.169,1.165c.079.212.17.42.249.633a1.807,1.807,0,0,0,1.247,1.186,10.83,10.83,0,0,0,1.108.248,3.116,3.116,0,0,1,1.72.849,2.372,2.372,0,0,0,.617.432,1.7,1.7,0,0,0,2.136-.558c-.033.015-.057.024-.079.037a1.279,1.279,0,0,1-1.91-.558,1.409,1.409,0,0,0-1.076-.876,2.353,2.353,0,0,1,2.241-.117,1.9,1.9,0,0,0-1.6-.6,7.855,7.855,0,0,0-1.139.218,1.88,1.88,0,0,1-2.4-1.119c-.036-.073-.08-.143-.111-.218a1.84,1.84,0,0,0-1.744-1.2c-.117-.006-.234-.015-.351-.022a3.393,3.393,0,0,1-1.478-.393c-.184-.1-.353-.235-.554-.37a1.363,1.363,0,0,0,.887.89" transform="translate(-35.902 -14.899)" fill="url(#linear-gradient)"/>
    </clipPath>
  </defs>
  <g id="Group_18647" data-name="Group 18647" transform="translate(246.514 3910.376)">
    <g id="Group_18636" data-name="Group 18636" transform="translate(-1239.514 -133.376)">
      <g id="Group_18626" data-name="Group 18626" transform="translate(1014.522 -3756.269)">
        <g id="Group_18625" data-name="Group 18625" transform="translate(0 0)" clip-path="url(#clip-path)">
          <rect id="Rectangle_6798" data-name="Rectangle 6798" width="13.814" height="8.711" transform="translate(0 0)" fill="url(#linear-gradient)"/>
        </g>
      </g>
      <g id="Group_18630" data-name="Group 18630" transform="translate(993 -3775.932)">
        <g id="Group_18629" data-name="Group 18629" transform="translate(0 0)" clip-path="url(#clip-path-2)">
          <rect id="Rectangle_6800" data-name="Rectangle 6800" width="50.058" height="48.051" transform="translate(-0.173 0)" fill="url(#linear-gradient)"/>
        </g>
      </g>
      <g id="Group_18632" data-name="Group 18632" transform="translate(999.494 -3777)">
        <g id="Group_18631" data-name="Group 18631" transform="translate(0)" clip-path="url(#clip-path-3)">
          <rect id="Rectangle_6801" data-name="Rectangle 6801" width="38.378" height="37.634" transform="translate(0 0)" fill="url(#linear-gradient)"/>
        </g>
      </g>
      <g id="Group_18634" data-name="Group 18634" transform="translate(1028.938 -3762.086)">
        <g id="Group_18633" data-name="Group 18633" transform="translate(0 0)" clip-path="url(#clip-path-4)">
          <rect id="Rectangle_6802" data-name="Rectangle 6802" width="10.204" height="6.146" transform="translate(0 0)" fill="url(#linear-gradient)"/>
        </g>
      </g>
    </g>
    <text id="Storagon" transform="translate(-190.761 -3876.585)" fill="#0a68fe" font-size="34" font-family="Helvetica"><tspan x="0" y="0">S</tspan><tspan y="0" letter-spacing="-0.014em">t</tspan><tspan y="0">o</tspan><tspan y="0" letter-spacing="-0.012em">r</tspan><tspan y="0">a</tspan><tspan y="0" letter-spacing="-0.014em">g</tspan><tspan y="0">on</tspan></text>
  </g>
</svg>
